<svg width="18" height="18" viewBox="0 0 18 18" fill="none" xmlns="http://www.w3.org/2000/svg">
<path d="M15.5324 6.9675L11.0324 2.4675C10.9633 2.40004 10.8818 2.34656 10.7924 2.31C10.6994 2.27221 10.6003 2.25187 10.4999 2.25H4.49994C3.9032 2.25 3.33091 2.48705 2.90895 2.90901C2.48699 3.33097 2.24994 3.90326 2.24994 4.5V13.5C2.24994 14.0967 2.48699 14.669 2.90895 15.091C3.33091 15.5129 3.9032 15.75 4.49994 15.75H13.4999C14.0967 15.75 14.669 15.5129 15.0909 15.091C15.5129 14.669 15.7499 14.0967 15.7499 13.5V7.5C15.7505 7.4013 15.7316 7.30345 15.6943 7.21207C15.6569 7.12069 15.6019 7.03758 15.5324 6.9675ZM6.74994 3.75H9.74994V5.25H6.74994V3.75ZM11.2499 14.25H6.74994V12C6.74994 11.8011 6.82896 11.6103 6.96961 11.4697C7.11026 11.329 7.30103 11.25 7.49994 11.25H10.4999C10.6989 11.25 10.8896 11.329 11.0303 11.4697C11.1709 11.6103 11.2499 11.8011 11.2499 12V14.25ZM14.2499 13.5C14.2499 13.6989 14.1709 13.8897 14.0303 14.0303C13.8896 14.171 13.6989 14.25 13.4999 14.25H12.7499V12C12.7499 11.4033 12.5129 10.831 12.0909 10.409C11.669 9.98705 11.0967 9.75 10.4999 9.75H7.49994C6.9032 9.75 6.33091 9.98705 5.90895 10.409C5.48699 10.831 5.24994 11.4033 5.24994 12V14.25H4.49994C4.30103 14.25 4.11026 14.171 3.96961 14.0303C3.82896 13.8897 3.74994 13.6989 3.74994 13.5V4.5C3.74994 4.30109 3.82896 4.11032 3.96961 3.96967C4.11026 3.82902 4.30103 3.75 4.49994 3.75H5.24994V6C5.24994 6.19891 5.32896 6.38968 5.46961 6.53033C5.61026 6.67098 5.80103 6.75 5.99994 6.75H10.4999C10.6989 6.75 10.8896 6.67098 11.0303 6.53033C11.1709 6.38968 11.2499 6.19891 11.2499 6V4.8075L14.2499 7.8075V13.5Z" fill="white"/>
</svg>
